<svg xmlns="http://www.w3.org/2000/svg" viewBox="0 0 42 42"><defs><style>.cls-1{fill:#fff;}</style></defs><g id="Layer_2" data-name="Layer 2"><g id="Layer_1-2" data-name="Layer 1"><path class="cls-1" d="M0,21.13v0A21.11,21.11,0,0,0,17.22,42V28.16H12.71a.71.71,0,0,1-.71-.71V21.72a.71.71,0,0,1,.71-.71h4.51v-4c0-5.21,3.26-8.58,8.3-8.58H30a.7.7,0,0,1,.7.71v5.32a.7.7,0,0,1-.7.71H27c-2.08,0-2.46.82-2.46,2.43V21H29.8a.75.75,0,0,1,.5.21.7.7,0,0,1,.2.5v5.73a.71.71,0,0,1-.71.71H24.52V42A21.1,21.1,0,0,0,42,21.17v0a21,21,0,1,0-42,0Z"/></g></g></svg>