<svg xmlns="http://www.w3.org/2000/svg" viewBox="0 0 80 400"><defs><style>.cls-1{fill:#231f20;}</style></defs><g id="Layer_2" data-name="Layer 2"><g id="helmet-solid"><path d="M17.78,4a2.25,2.25,0,0,0-2.22,2.29v7.27a.72.72,0,0,1-.71.73.7.7,0,0,1-.61-.37l-3.33-6A16,16,0,0,0,2.22,22.29v4.57H37.78V22.11A16,16,0,0,0,29.09,7.93l-3.33,6a.7.7,0,0,1-.61.37.72.72,0,0,1-.71-.73V6.29A2.25,2.25,0,0,0,22.22,4ZM1.15,29.14A1.17,1.17,0,0,0,0,30.33a1.05,1.05,0,0,0,.4.85C1.91,32.31,7.76,36,20,36s18.09-3.69,19.6-4.82a1.07,1.07,0,0,0,.4-.85,1.17,1.17,0,0,0-1.15-1.19Z"/></g><g id="helmet-outline"><path d="M39.81,68.56a2.67,2.67,0,0,0-2.48-1.76h.47V63.4A18.09,18.09,0,0,0,25.57,46.19v-.38A2.78,2.78,0,0,0,22.81,43H17.2a2.79,2.79,0,0,0-2.75,2.8v.39A18.09,18.09,0,0,0,2.22,63.4v3.4h.46A2.67,2.67,0,0,0,.2,68.56a3,3,0,0,0,.48,3C1.15,72.08,5.72,77,20,77s18.85-4.92,19.32-5.47A3.13,3.13,0,0,0,39.81,68.56ZM5.56,63.4a14.69,14.69,0,0,1,8.89-13.54v13a1.67,1.67,0,1,0,3.33,0V46.4h4.45V62.83a1.67,1.67,0,1,0,3.33,0v-13a14.79,14.79,0,0,1,8.9,13.54v3.4H5.56ZM20,73.6c-9.12,0-13.73-2.14-15.66-3.4H35.67C33.74,71.46,29.12,73.6,20,73.6Z"/></g><g id="worker-solid"><path d="M21.11,86.11a3.33,3.33,0,1,1-3.33-3.33A3.33,3.33,0,0,1,21.11,86.11ZM.68,96.58a1.67,1.67,0,0,1,2.18-.89l1.36.56L5.81,93.6a6.25,6.25,0,0,1,5.37-3,8.29,8.29,0,0,1,7.87,5.67l2.4,7.2,5.51,2.3,2.38-3.17a2.24,2.24,0,0,1,1.88-.89,2.27,2.27,0,0,1,1.8,1.08l6.66,11.11a2.21,2.21,0,0,1-1.9,3.36H20A2.21,2.21,0,0,1,18,114l1.11-2.22a2.21,2.21,0,0,1,2-1.23h2.23l1.56-2.09L1.58,98.76a1.66,1.66,0,0,1-.89-2.18ZM6.43,103l7.78,3.33a2.22,2.22,0,0,1,1.35,2V115a2.23,2.23,0,0,1-4.45,0v-5.2L6.9,108,4.33,115.7a2.22,2.22,0,0,1-4.22-1.4l3.34-10L4.21,102Z"/></g><g id="worker-outline"><path d="M21.58,151.13a2.23,2.23,0,0,0-2.11,1.52l-1.72,5.15H40l-7.08-14.32a2.24,2.24,0,0,0-3.91-.17l-2.41,4.13-5.73-3.24-1.5-8.67a8.39,8.39,0,0,0-8.18-6.66H7.62a3.89,3.89,0,0,0-2.92,1.31L.92,134.44a1.63,1.63,0,0,0-.4,1.38A1.67,1.67,0,0,0,1.34,137l23.57,13.32-.49.81Zm-16.79-16,2.41-2.72a.42.42,0,0,1,.42-.18H11.2a5,5,0,0,1,4.89,3.94l1,5.93Zm26.05,11.7,3.79,7.67H26.34Zm-12-17.94a3.35,3.35,0,0,0,3.34-3.34,3.39,3.39,0,0,0-3.34-3.34,3.34,3.34,0,1,0,0,6.68Zm-13,13a1.68,1.68,0,0,0-2.5,1L.05,155.71a1.68,1.68,0,0,0,1.2,2,.9.9,0,0,0,.36.06,1.66,1.66,0,0,0,1.61-1.25L6,146l6.19,3.87v6.31a1.61,1.61,0,1,0,3.22,0V148.9a1.67,1.67,0,0,0-.79-1.41Z"/></g><g id="paint-solid"><path d="M0,205a5,5,0,0,1,5-5H27.5a5,5,0,0,1,5,5v5a5,5,0,0,1-5,5H5a5,5,0,0,1-5-5Zm12.5,22.5A2.5,2.5,0,0,1,15,225v-1.25a6.25,6.25,0,0,1,6.25-6.25H32.5A2.5,2.5,0,0,0,35,215v-9.57a7.5,7.5,0,0,1,5,7.07V215a7.5,7.5,0,0,1-7.5,7.5H21.25A1.25,1.25,0,0,0,20,223.75V225a2.5,2.5,0,0,1,2.5,2.5v10A2.5,2.5,0,0,1,20,240H15a2.5,2.5,0,0,1-2.5-2.5Z"/></g><g id="paint-outline"><path d="M27.5,160a5,5,0,0,1,5,5v5a5,5,0,0,1-5,5H5a5,5,0,0,1-5-5v-5a5,5,0,0,1,5-5Zm0,3.75H5A1.25,1.25,0,0,0,3.75,165v5A1.25,1.25,0,0,0,5,171.25H27.5A1.25,1.25,0,0,0,28.75,170v-5A1.25,1.25,0,0,0,27.5,163.75Zm-15,23.75A2.5,2.5,0,0,1,15,185h.63v-1.25a5.62,5.62,0,0,1,5.62-5.63H33.13A3.12,3.12,0,0,0,36.25,175v-3.75A1.88,1.88,0,0,0,35,169.48v-3.82a5.62,5.62,0,0,1,5,5.59V175a6.88,6.88,0,0,1-6.87,6.88H21.25a1.86,1.86,0,0,0-1.87,1.87V185H20a2.5,2.5,0,0,1,2.5,2.5v10A2.5,2.5,0,0,1,20,200H15a2.5,2.5,0,0,1-2.5-2.5Z"/></g><g id="pen-solid"><path d="M36.7,241.47l1.83,1.83a5,5,0,0,1,0,7.08l-4.41,4.41-8.91-8.91,4.41-4.41a5,5,0,0,1,7.08,0ZM3.51,267.58l19.93-19.93,8.92,8.91L12.42,276.49a4.37,4.37,0,0,1-1.89,1.11L2.4,279.92a1.88,1.88,0,0,1-1.85-.47,1.91,1.91,0,0,1-.48-1.85l2.33-8.13a4.31,4.31,0,0,1,1.11-1.9Zm16-19.53L8.09,259.46l-6.84-6.84a3.77,3.77,0,0,1,0-5.31l6.11-6.1a3.77,3.77,0,0,1,5.31,0l1.55,1.55-.08.07-5,5a1.24,1.24,0,1,0,1.76,1.76l5-5,.07-.08ZM32,260.5,35.48,264a.46.46,0,0,1-.07.07l-5,5a1.25,1.25,0,0,0,1.77,1.77l5-5a.27.27,0,0,0,.07-.08l1.55,1.56a3.77,3.77,0,0,1,0,5.31l-6.11,6.1a3.77,3.77,0,0,1-5.31,0l-6.83-6.83Z"/></g><g id="pen-outline"><path d="M37.91,306.45a5,5,0,0,1,0,7.08l-4.34,4.33a5,5,0,0,1-7.08,0l-5.1-5.09,2.66-2.66,5.1,5.1a1.4,1.4,0,0,0,1.77,0l4.33-4.34a1.39,1.39,0,0,0,0-1.76L34,307.82l-1.8,1.8a1.25,1.25,0,0,1-1.77-1.77l1.8-1.79L30.15,304l2.66-2.66ZM7.24,298.61l-5.1-5.1a5,5,0,0,1,0-7.08l4.33-4.34a5,5,0,0,1,7.08,0l5.1,5.1L16,289.85l-2.05-2.05-1.79,1.8a1.25,1.25,0,1,1-1.77-1.77l1.8-1.8-1.29-1.28a1.24,1.24,0,0,0-1.76,0l-4.34,4.33a1.25,1.25,0,0,0,0,1.77l5.1,5.1Zm-2.66,6.65,23.79-23.79a5,5,0,0,1,7.08,0l3.08,3.08a4.71,4.71,0,0,1,.64.79,5,5,0,0,1-.64,6.29L14.74,315.42c-.1.1-.2.13-.31.29a7.74,7.74,0,0,1-2.61,1.44l-9.41,2.77a1.75,1.75,0,0,1-1.86-.54,1.69,1.69,0,0,1-.47-1.79l2.76-9.41a7,7,0,0,1,1.74-2.92Zm1.87,4-1.8,6.11,6.11-1.79a3.81,3.81,0,0,0,1.33-.79L30,294.9,25,290,7.24,307.91a1,1,0,0,0-.14.15,2.91,2.91,0,0,0-.65,1.18Z"/></g><g id="mail-solid"><path d="M3.75,325a3.75,3.75,0,0,0-2.25,6.75l17,12.75a2.52,2.52,0,0,0,3,0l17-12.75A3.75,3.75,0,0,0,36.25,325ZM0,333.75V350a5,5,0,0,0,5,5H35a5,5,0,0,0,5-5V333.75L23,346.5a5,5,0,0,1-6,0Z"/></g><g id="mail-outline"><path d="M5,368.75A1.25,1.25,0,0,0,3.75,370v1.73l13.48,11.06a4.36,4.36,0,0,0,5.55,0l13.47-11.06V370A1.25,1.25,0,0,0,35,368.75Zm-1.25,7.83V390A1.25,1.25,0,0,0,5,391.25H35A1.25,1.25,0,0,0,36.25,390V376.58l-11.09,9.11a8.14,8.14,0,0,1-10.32,0ZM0,370a5,5,0,0,1,5-5H35a5,5,0,0,1,5,5v20a5,5,0,0,1-5,5H5a5,5,0,0,1-5-5Z"/></g><g id="radnik-outline"><path d="M49.38,13.75H70.63a.62.62,0,0,0,.62-.62v-2.5a.63.63,0,0,0-.62-.63H70a8.67,8.67,0,0,0-5.37-8L62.5,6.25v-5A1.24,1.24,0,0,0,61.25,0h-2.5A1.25,1.25,0,0,0,57.5,1.25v5L55.38,2A8.68,8.68,0,0,0,50,10h-.62a.63.63,0,0,0-.63.63v2.43A.64.64,0,0,0,49.38,13.75ZM60,21.25a6.24,6.24,0,0,1-6.12-5H50.13a9.95,9.95,0,0,0,19.75,0H66.13A6.31,6.31,0,0,1,60,21.25Zm7.09,6.25H52.91A10.42,10.42,0,0,0,42.5,37.92,2.08,2.08,0,0,0,44.58,40H75.42a2.08,2.08,0,0,0,2.08-2.08A10.42,10.42,0,0,0,67.09,27.5ZM46.46,36.25a6.68,6.68,0,0,1,6.46-5H67.08a6.68,6.68,0,0,1,6.46,5Z"/></g><g id="radnik-solid"><path d="M59.38,40a1.88,1.88,0,0,0-1.88,1.88v4.37L55.28,41.8A10,10,0,0,0,50,50h0a1.88,1.88,0,1,0,0,3.75H70A1.88,1.88,0,1,0,70,50h0a10,10,0,0,0-5.26-8.2L62.5,46.25V41.88A1.88,1.88,0,0,0,60.63,40ZM60,65a10,10,0,0,0,9.92-8.75H50.08A10,10,0,0,0,60,65Zm-7,2.5A10.5,10.5,0,0,0,42.5,78a2,2,0,0,0,2,2h31a2,2,0,0,0,2-2A10.5,10.5,0,0,0,67,67.5Z"/></g><g id="building-outline"><path d="M62.22,105.47a1.1,1.1,0,0,1-1.11-1.09v-2.19a1.11,1.11,0,0,1,1.11-1.1h2.22a1.11,1.11,0,0,1,1.12,1.1v2.19a1.11,1.11,0,0,1-1.12,1.09Zm12.22,5.47A1.1,1.1,0,0,1,73.33,112H71.11A1.1,1.1,0,0,1,70,110.94v-2.19a1.1,1.1,0,0,1,1.11-1.09h2.22a1.1,1.1,0,0,1,1.11,1.09Zm-27.77-5.47a1.1,1.1,0,0,1-1.11-1.09v-2.19a1.11,1.11,0,0,1,1.11-1.1h2.22a1.11,1.11,0,0,1,1.11,1.1v2.19a1.1,1.1,0,0,1-1.11,1.09ZM50,110.94A1.1,1.1,0,0,1,48.89,112H46.67a1.1,1.1,0,0,1-1.11-1.09v-2.19a1.1,1.1,0,0,1,1.11-1.09h2.22A1.1,1.1,0,0,1,50,108.75Zm5.56-5.47a1.11,1.11,0,0,1-1.12-1.09v-2.19a1.11,1.11,0,0,1,1.12-1.1h2.22a1.11,1.11,0,0,1,1.11,1.1v2.19a1.1,1.1,0,0,1-1.11,1.09Zm10-14.22a1.11,1.11,0,0,1-1.12,1.09H62.22a1.1,1.1,0,0,1-1.11-1.09V89.06A1.1,1.1,0,0,1,62.22,88h2.22a1.11,1.11,0,0,1,1.12,1.09ZM57.78,88a1.1,1.1,0,0,1,1.11,1.09v2.19a1.1,1.1,0,0,1-1.11,1.09H55.56a1.11,1.11,0,0,1-1.12-1.09V89.06A1.11,1.11,0,0,1,55.56,88Zm7.78,9.84a1.11,1.11,0,0,1-1.12,1.1H62.22a1.11,1.11,0,0,1-1.11-1.1V95.62a1.1,1.1,0,0,1,1.11-1.09h2.22a1.11,1.11,0,0,1,1.12,1.09Zm5.55,7.66A1.1,1.1,0,0,1,70,104.38v-2.19a1.11,1.11,0,0,1,1.11-1.1h2.22a1.11,1.11,0,0,1,1.11,1.1v2.19a1.1,1.1,0,0,1-1.11,1.09ZM50,97.81a1.11,1.11,0,0,1-1.11,1.1H46.67a1.11,1.11,0,0,1-1.11-1.1V95.62a1.1,1.1,0,0,1,1.11-1.09h2.22A1.1,1.1,0,0,1,50,95.62Zm5.56,1.1a1.11,1.11,0,0,1-1.12-1.1V95.62a1.11,1.11,0,0,1,1.12-1.09h2.22a1.1,1.1,0,0,1,1.11,1.09v2.19a1.11,1.11,0,0,1-1.11,1.1ZM44.44,117.5A4.41,4.41,0,0,1,40,113.12V93.44a4.41,4.41,0,0,1,4.44-4.38h4.45V86.88a4.41,4.41,0,0,1,4.44-4.38H66.67a4.41,4.41,0,0,1,4.44,4.38v8.74h4.45A4.42,4.42,0,0,1,80,100v13.12a4.41,4.41,0,0,1-4.44,4.38Zm7.78-25.16H44.44a1.11,1.11,0,0,0-1.11,1.1v19.68a1.11,1.11,0,0,0,1.11,1.1H57.78v-3.28a2.22,2.22,0,0,1,4.44,0v3.28H75.56a1.11,1.11,0,0,0,1.11-1.1V100a1.1,1.1,0,0,0-1.11-1.09H67.78v-12a1.11,1.11,0,0,0-1.11-1.1H53.33a1.11,1.11,0,0,0-1.11,1.1Z"/></g><g id="building-solid"><path d="M52.22,122.5a3.31,3.31,0,0,0-3.33,3.28v3.28H43.33A3.31,3.31,0,0,0,40,132.34v21.88a3.31,3.31,0,0,0,3.33,3.28H57.78v-6.56a2.22,2.22,0,0,1,4.44,0v6.56H76.67A3.31,3.31,0,0,0,80,154.22V138.91a3.31,3.31,0,0,0-3.33-3.29H71.11v-9.84a3.31,3.31,0,0,0-3.33-3.28Zm13.34,21.88H63.33a1.11,1.11,0,0,1-1.11-1.1v-2.19A1.1,1.1,0,0,1,63.33,140h2.23a1.1,1.1,0,0,1,1.11,1.09v2.19A1.11,1.11,0,0,1,65.56,144.38Zm10,5.46a1.11,1.11,0,0,1-1.12,1.1H72.22a1.11,1.11,0,0,1-1.11-1.1v-2.18a1.11,1.11,0,0,1,1.11-1.1h2.22a1.11,1.11,0,0,1,1.12,1.1Zm-27.78-5.46H45.56a1.11,1.11,0,0,1-1.12-1.1v-2.19A1.11,1.11,0,0,1,45.56,140h2.22a1.1,1.1,0,0,1,1.11,1.09v2.19A1.11,1.11,0,0,1,47.78,144.38Zm1.11,5.46a1.11,1.11,0,0,1-1.11,1.1H45.56a1.11,1.11,0,0,1-1.12-1.1v-2.18a1.11,1.11,0,0,1,1.12-1.1h2.22a1.11,1.11,0,0,1,1.11,1.1Zm7.78-5.46H54.44a1.11,1.11,0,0,1-1.11-1.1v-2.19A1.1,1.1,0,0,1,54.44,140h2.23a1.1,1.1,0,0,1,1.11,1.09v2.19A1.11,1.11,0,0,1,56.67,144.38Zm10-16.41v2.19a1.1,1.1,0,0,1-1.11,1.09H63.33a1.1,1.1,0,0,1-1.11-1.09V128a1.1,1.1,0,0,1,1.11-1.09h2.23A1.1,1.1,0,0,1,66.67,128Zm-10-1.09A1.1,1.1,0,0,1,57.78,128v2.19a1.1,1.1,0,0,1-1.11,1.09H54.44a1.1,1.1,0,0,1-1.11-1.09V128a1.1,1.1,0,0,1,1.11-1.09Zm10,9.84a1.1,1.1,0,0,1-1.11,1.09H63.33a1.1,1.1,0,0,1-1.11-1.09v-2.19a1.1,1.1,0,0,1,1.11-1.09h2.23a1.1,1.1,0,0,1,1.11,1.09Zm7.77,7.66H72.22a1.11,1.11,0,0,1-1.11-1.1v-2.19A1.1,1.1,0,0,1,72.22,140h2.22a1.11,1.11,0,0,1,1.12,1.09v2.19A1.11,1.11,0,0,1,74.44,144.38Zm-25.55-7.66a1.1,1.1,0,0,1-1.11,1.09H45.56a1.11,1.11,0,0,1-1.12-1.09v-2.19a1.11,1.11,0,0,1,1.12-1.09h2.22a1.1,1.1,0,0,1,1.11,1.09Zm7.78,1.09H54.44a1.1,1.1,0,0,1-1.11-1.09v-2.19a1.1,1.1,0,0,1,1.11-1.09h2.23a1.1,1.1,0,0,1,1.11,1.09v2.19A1.1,1.1,0,0,1,56.67,137.81Z"/></g><g id="trowel-solid"><path d="M58.81,160.37A2.5,2.5,0,0,1,60,162.5v5.62h7a2.51,2.51,0,0,1,2.43-1.87h6.87a3.75,3.75,0,0,1,0,7.5H69.38A2.51,2.51,0,0,1,67,171.87H60v5.63a2.5,2.5,0,0,1-3.62,2.23l-15-7.5a2.5,2.5,0,0,1,0-4.47l15-7.5A2.5,2.5,0,0,1,58.81,160.37ZM62.5,180a2.5,2.5,0,0,1,2.5-2.5H77.5A2.5,2.5,0,0,1,80,180v5a2.5,2.5,0,0,1-2.5,2.5H65a2.5,2.5,0,0,1-2.5-2.5Zm-20,10H50a2.5,2.5,0,0,1,2.5,2.5v5A2.5,2.5,0,0,1,50,200H42.5a2.5,2.5,0,0,1-2.5-2.5v-5A2.5,2.5,0,0,1,42.5,190Zm15,0h20a2.5,2.5,0,0,1,2.5,2.5v5a2.5,2.5,0,0,1-2.5,2.5h-20a2.5,2.5,0,0,1-2.5-2.5v-5A2.5,2.5,0,0,1,57.5,190Z"/></g><g id="trowel-outline"><path d="M58.81,200.37A2.5,2.5,0,0,1,60,202.5v5.62h7a2.51,2.51,0,0,1,2.43-1.87h6.87a3.75,3.75,0,0,1,0,7.5H69.38A2.51,2.51,0,0,1,67,211.87H60v5.63a2.5,2.5,0,0,1-3.62,2.23l-15-7.5A2.49,2.49,0,0,1,40,210a2.52,2.52,0,0,1,1.38-2.24l15-7.5a2.53,2.53,0,0,1,2.43.11Zm7.44,17.13h10A3.75,3.75,0,0,1,80,221.25v8.12c0,.11,0,.22,0,.32s0,.21,0,.31v6.25A3.75,3.75,0,0,1,76.25,240H43.75A3.75,3.75,0,0,1,40,236.25V230a3.75,3.75,0,0,1,3.75-3.75H62.5v-5A3.75,3.75,0,0,1,66.25,217.5ZM60,230v6.25H76.25V230Zm-3.75,0H43.75v6.25h12.5Zm20-8.75h-10v5h10Z"/></g><g id="house-outline"><path d="M58.92,242.89a1.69,1.69,0,0,1,2.16,0l11.14,9.31v-5.87a1.67,1.67,0,1,1,3.34,0V255l3.85,3.22a1.62,1.62,0,0,1,.19,2.31,1.67,1.67,0,0,1-2.34.19l-1.7-1.42V272A5.52,5.52,0,0,1,70,277.5H50A5.52,5.52,0,0,1,44.44,272V259.28l-1.69,1.42a1.68,1.68,0,0,1-2.35-.19,1.62,1.62,0,0,1,.19-2.31ZM47.78,256.5V272A2.2,2.2,0,0,0,50,274.22h3.33V263.83a2.77,2.77,0,0,1,2.78-2.74h7.78a2.77,2.77,0,0,1,2.78,2.74v10.39H70A2.2,2.2,0,0,0,72.22,272V256.5L60,246.29Zm8.89,7.88v9.84h6.66v-9.84Z"/></g><g id="house-solid"><path class="cls-1" d="M77.77,302.16A2.22,2.22,0,0,0,80,300a1.85,1.85,0,0,0-.76-1.64l-3.67-3.18v-8.27a2.2,2.2,0,0,0-2.22-2.19H71.11a2.2,2.2,0,0,0-2.22,2.19v2.5l-7.4-6.4A2.32,2.32,0,0,0,60,282.5a2,2,0,0,0-1.53.55L40.69,298.33A2.2,2.2,0,0,0,40,300a2.18,2.18,0,0,0,2.22,2.19h2.22v12.61a2.75,2.75,0,0,0,2.78,2.73h5.56a2.76,2.76,0,0,0,2.78-2.73v-6a2.2,2.2,0,0,1,2.22-2.19h4.44a2.21,2.21,0,0,1,2.23,2.19v6a2.75,2.75,0,0,0,2.77,2.73h5.56a2.75,2.75,0,0,0,2.78-2.73v-1.11a5,5,0,0,0,0-.56l0-11h2.23Z"/></g><g id="phone-outline"><path d="M61.88,320A18.13,18.13,0,0,1,80,338.12a1.88,1.88,0,1,1-3.75,0,14.38,14.38,0,0,0-14.37-14.37,1.88,1.88,0,1,1,0-3.75Zm.62,15a2.5,2.5,0,1,1-2.5,2.5A2.5,2.5,0,0,1,62.5,335ZM60,329.38a1.88,1.88,0,0,1,1.88-1.88A10.63,10.63,0,0,1,72.5,338.12a1.88,1.88,0,1,1-3.75,0,6.88,6.88,0,0,0-6.87-6.87A1.88,1.88,0,0,1,60,329.38Zm5.7,13a3.11,3.11,0,0,1,3.65-.89l8.75,3.75a3.12,3.12,0,0,1,1.83,3.52l-1.88,8.75A3.12,3.12,0,0,1,75,360h0c-.48,0-1,0-1.42,0h0c-.78,0-1.55-.09-2.31-.17A35,35,0,0,1,40,325h0A3.11,3.11,0,0,1,42.47,322l8.75-1.88a3.11,3.11,0,0,1,3.52,1.83l3.75,8.75a3.12,3.12,0,0,1-.89,3.65l-3.17,2.59a24.08,24.08,0,0,0,8.68,8.68Zm10.46,6.1-7.85-3.36L66,347.94a3.75,3.75,0,0,1-4.79.86,27.62,27.62,0,0,1-10-10,3.75,3.75,0,0,1,.86-4.78l2.81-2.3-3.36-7.84-7.74,1.67a31.25,31.25,0,0,0,30.73,30.74l1.67-7.75Z"/></g><g id="phone-solid"><path d="M61.88,360A18.13,18.13,0,0,1,80,378.13a1.88,1.88,0,0,1-3.75,0,14.38,14.38,0,0,0-14.37-14.38,1.88,1.88,0,1,1,0-3.75Zm.62,15a2.5,2.5,0,1,1-2.5,2.5A2.5,2.5,0,0,1,62.5,375ZM60,369.38a1.88,1.88,0,0,1,1.88-1.88A10.63,10.63,0,0,1,72.5,378.13a1.88,1.88,0,0,1-3.75,0,6.88,6.88,0,0,0-6.87-6.88A1.87,1.87,0,0,1,60,369.38Zm-10.82-9.27a3.11,3.11,0,0,1,3.7,1.81l3.13,7.5A3.12,3.12,0,0,1,55.1,373l-3.85,3.16A26.37,26.37,0,0,0,63.8,388.75L67,384.9a3.13,3.13,0,0,1,3.62-.91l7.5,3.13a3.11,3.11,0,0,1,1.81,3.7L78,397.7a3.13,3.13,0,0,1-3,2.3,35,35,0,0,1-35-35,3.14,3.14,0,0,1,2.3-3Z"/></g></g></svg>