<svg xmlns="http://www.w3.org/2000/svg" viewBox="0 0 40 35"><path d="M22.22,23a1.1,1.1,0,0,1-1.11-1.09V19.69a1.11,1.11,0,0,1,1.11-1.1h2.22a1.11,1.11,0,0,1,1.12,1.1v2.19A1.11,1.11,0,0,1,24.44,23Zm12.22,5.47a1.1,1.1,0,0,1-1.11,1.09H31.11A1.1,1.1,0,0,1,30,28.44V26.25a1.1,1.1,0,0,1,1.11-1.09h2.22a1.1,1.1,0,0,1,1.11,1.09ZM6.67,23a1.1,1.1,0,0,1-1.11-1.09V19.69a1.11,1.11,0,0,1,1.11-1.1H8.89A1.11,1.11,0,0,1,10,19.69v2.19A1.1,1.1,0,0,1,8.89,23ZM10,28.44a1.1,1.1,0,0,1-1.11,1.09H6.67a1.1,1.1,0,0,1-1.11-1.09V26.25a1.1,1.1,0,0,1,1.11-1.09H8.89A1.1,1.1,0,0,1,10,26.25ZM15.56,23a1.11,1.11,0,0,1-1.12-1.09V19.69a1.11,1.11,0,0,1,1.12-1.1h2.22a1.11,1.11,0,0,1,1.11,1.1v2.19A1.1,1.1,0,0,1,17.78,23Zm10-14.22a1.11,1.11,0,0,1-1.12,1.09H22.22a1.1,1.1,0,0,1-1.11-1.09V6.56a1.1,1.1,0,0,1,1.11-1.09h2.22a1.11,1.11,0,0,1,1.12,1.09ZM17.78,5.47a1.1,1.1,0,0,1,1.11,1.09V8.75a1.1,1.1,0,0,1-1.11,1.09H15.56a1.11,1.11,0,0,1-1.12-1.09V6.56a1.11,1.11,0,0,1,1.12-1.09Zm7.78,9.84a1.11,1.11,0,0,1-1.12,1.1H22.22a1.11,1.11,0,0,1-1.11-1.1V13.12A1.1,1.1,0,0,1,22.22,12h2.22a1.11,1.11,0,0,1,1.12,1.09ZM31.11,23A1.1,1.1,0,0,1,30,21.88V19.69a1.11,1.11,0,0,1,1.11-1.1h2.22a1.11,1.11,0,0,1,1.11,1.1v2.19A1.1,1.1,0,0,1,33.33,23ZM10,15.31a1.11,1.11,0,0,1-1.11,1.1H6.67a1.11,1.11,0,0,1-1.11-1.1V13.12A1.1,1.1,0,0,1,6.67,12H8.89A1.1,1.1,0,0,1,10,13.12Zm5.56,1.1a1.11,1.11,0,0,1-1.12-1.1V13.12A1.11,1.11,0,0,1,15.56,12h2.22a1.1,1.1,0,0,1,1.11,1.09v2.19a1.11,1.11,0,0,1-1.11,1.1ZM4.44,35A4.41,4.41,0,0,1,0,30.62V10.94A4.41,4.41,0,0,1,4.44,6.56H8.89V4.38A4.41,4.41,0,0,1,13.33,0H26.67a4.41,4.41,0,0,1,4.44,4.38v8.74h4.45A4.42,4.42,0,0,1,40,17.5V30.62A4.41,4.41,0,0,1,35.56,35ZM12.22,9.84H4.44a1.11,1.11,0,0,0-1.11,1.1V30.62a1.11,1.11,0,0,0,1.11,1.1H17.78V28.44a2.22,2.22,0,0,1,4.44,0v3.28H35.56a1.11,1.11,0,0,0,1.11-1.1V17.5a1.1,1.1,0,0,0-1.11-1.09H27.78v-12a1.11,1.11,0,0,0-1.11-1.1H13.33a1.11,1.11,0,0,0-1.11,1.1Z"/></svg>