<svg xmlns="http://www.w3.org/2000/svg" viewBox="0 0 40 35"><path d="M12.22,0A3.31,3.31,0,0,0,8.89,3.28V6.56H3.33A3.31,3.31,0,0,0,0,9.84V31.72A3.31,3.31,0,0,0,3.33,35H17.78V28.44a2.22,2.22,0,0,1,4.44,0V35H36.67A3.31,3.31,0,0,0,40,31.72V16.41a3.31,3.31,0,0,0-3.33-3.29H31.11V3.28A3.31,3.31,0,0,0,27.78,0ZM25.56,21.88H23.33a1.11,1.11,0,0,1-1.11-1.1V18.59a1.1,1.1,0,0,1,1.11-1.09h2.23a1.1,1.1,0,0,1,1.11,1.09v2.19A1.11,1.11,0,0,1,25.56,21.88Zm10,5.46a1.11,1.11,0,0,1-1.12,1.1H32.22a1.11,1.11,0,0,1-1.11-1.1V25.16a1.11,1.11,0,0,1,1.11-1.1h2.22a1.11,1.11,0,0,1,1.12,1.1ZM7.78,21.88H5.56a1.11,1.11,0,0,1-1.12-1.1V18.59A1.11,1.11,0,0,1,5.56,17.5H7.78a1.1,1.1,0,0,1,1.11,1.09v2.19A1.11,1.11,0,0,1,7.78,21.88Zm1.11,5.46a1.11,1.11,0,0,1-1.11,1.1H5.56a1.11,1.11,0,0,1-1.12-1.1V25.16a1.11,1.11,0,0,1,1.12-1.1H7.78a1.11,1.11,0,0,1,1.11,1.1Zm7.78-5.46H14.44a1.11,1.11,0,0,1-1.11-1.1V18.59a1.1,1.1,0,0,1,1.11-1.09h2.23a1.1,1.1,0,0,1,1.11,1.09v2.19A1.11,1.11,0,0,1,16.67,21.88Zm10-16.41V7.66a1.1,1.1,0,0,1-1.11,1.09H23.33a1.1,1.1,0,0,1-1.11-1.09V5.47a1.1,1.1,0,0,1,1.11-1.09h2.23A1.1,1.1,0,0,1,26.67,5.47Zm-10-1.09a1.1,1.1,0,0,1,1.11,1.09V7.66a1.1,1.1,0,0,1-1.11,1.09H14.44a1.1,1.1,0,0,1-1.11-1.09V5.47a1.1,1.1,0,0,1,1.11-1.09Zm10,9.84a1.1,1.1,0,0,1-1.11,1.09H23.33a1.1,1.1,0,0,1-1.11-1.09V12a1.1,1.1,0,0,1,1.11-1.09h2.23A1.1,1.1,0,0,1,26.67,12Zm7.77,7.66H32.22a1.11,1.11,0,0,1-1.11-1.1V18.59a1.1,1.1,0,0,1,1.11-1.09h2.22a1.11,1.11,0,0,1,1.12,1.09v2.19A1.11,1.11,0,0,1,34.44,21.88ZM8.89,14.22a1.1,1.1,0,0,1-1.11,1.09H5.56a1.11,1.11,0,0,1-1.12-1.09V12a1.11,1.11,0,0,1,1.12-1.09H7.78A1.1,1.1,0,0,1,8.89,12Zm7.78,1.09H14.44a1.1,1.1,0,0,1-1.11-1.09V12a1.1,1.1,0,0,1,1.11-1.09h2.23A1.1,1.1,0,0,1,17.78,12v2.19A1.1,1.1,0,0,1,16.67,15.31Z"/></svg>