<svg xmlns="http://www.w3.org/2000/svg" viewBox="0 0 120 120">
  <path fill="#254260" d="M60 0a15 15 0 0 0-15 15v15H15A15 15 0 0 0 0 45v60a15 15 0 0 0 15 15h90a15 15 0 0 0 15-15V15a15 15 0 0 0-15-15ZM15 71.3a3.8 3.8 0 0 1 3.8-3.8h7.4a3.8 3.8 0 0 1 3.8 3.8v7.5a3.8 3.8 0 0 1-3.8 3.7h-7.4a3.8 3.8 0 0 1-3.8-3.8ZM63.8 75a3.8 3.8 0 0 1-3.8-3.8v-7.5a3.8 3.8 0 0 1 3.8-3.7h7.5a3.8 3.8 0 0 1 3.7 3.8v7.5a3.8 3.8 0 0 1-3.8 3.7ZM90 71.2v-7.5a3.8 3.8 0 0 1 3.8-3.7h7.5a3.8 3.8 0 0 1 3.7 3.8v7.5a3.8 3.8 0 0 1-3.8 3.7h-7.5a3.8 3.8 0 0 1-3.7-3.8ZM18.7 45h7.6a3.8 3.8 0 0 1 3.7 3.8v7.5a3.8 3.8 0 0 1-3.8 3.7h-7.4a3.8 3.8 0 0 1-3.8-3.8v-7.5a3.8 3.8 0 0 1 3.8-3.7ZM60 18.7a3.8 3.8 0 0 1 3.8-3.7h7.5a3.8 3.8 0 0 1 3.7 3.8v7.4a3.8 3.8 0 0 1-3.8 3.8h-7.5a3.8 3.8 0 0 1-3.7-3.8ZM93.8 15h7.5a3.8 3.8 0 0 1 3.7 3.8v7.4a3.8 3.8 0 0 1-3.8 3.8h-7.5a3.8 3.8 0 0 1-3.7-3.8v-7.4a3.8 3.8 0 0 1 3.8-3.8ZM60 48.8v-7.5a3.8 3.8 0 0 1 3.8-3.8h7.5a3.8 3.8 0 0 1 3.7 3.8v7.5a3.8 3.8 0 0 1-3.8 3.7h-7.5a3.8 3.8 0 0 1-3.7-3.8Zm33.8 3.7a3.8 3.8 0 0 1-3.8-3.8v-7.5a3.8 3.8 0 0 1 3.8-3.7h7.5a3.8 3.8 0 0 1 3.7 3.8v7.5a3.8 3.8 0 0 1-3.8 3.7Z"/>
</svg>