<svg xmlns="http://www.w3.org/2000/svg" viewBox="0 0 40 40"><defs><style>.cls-1{fill:#fff;}</style></defs><g id="Layer_2" data-name="Layer 2"><g id="Layer_1-2" data-name="Layer 1"><path class="cls-1" d="M20,36.25c.58,0,2.11-.56,3.72-3.78a22.51,22.51,0,0,0,1.72-5H14.56a22.51,22.51,0,0,0,1.72,5C17.89,35.69,19.42,36.25,20,36.25ZM14,23.75h12.1a34.8,34.8,0,0,0,.2-3.75,34.8,34.8,0,0,0-.2-3.75H14a35.26,35.26,0,0,0,0,7.5Zm.61-11.25H25.44a22.51,22.51,0,0,0-1.72-5C22.11,4.31,20.58,3.75,20,3.75s-2.11.56-3.72,3.78A22.51,22.51,0,0,0,14.56,12.5Zm15.26,3.75c.12,1.21.17,2.47.17,3.75s-.06,2.54-.17,3.75h6A16.52,16.52,0,0,0,36.25,20a16,16,0,0,0-.44-3.75h-6Zm4.59-3.75a16.33,16.33,0,0,0-7.68-7.3,26.14,26.14,0,0,1,2.54,7.3h5.14Zm-23.69,0a25.94,25.94,0,0,1,2.55-7.3,16.31,16.31,0,0,0-7.69,7.3h5.14ZM4.19,16.25A16.52,16.52,0,0,0,3.75,20a16,16,0,0,0,.44,3.75h6C10.06,22.54,10,21.28,10,20s.06-2.54.17-3.75ZM26.73,34.8a16.33,16.33,0,0,0,7.68-7.3H29.27A26.26,26.26,0,0,1,26.73,34.8Zm-13.46,0a26.14,26.14,0,0,1-2.54-7.3H5.58a16.31,16.31,0,0,0,7.69,7.3ZM20,40A20,20,0,1,1,40,20,20,20,0,0,1,20,40Z"/></g></g></svg>