<svg xmlns="http://www.w3.org/2000/svg" viewBox="0 0 40 34"><path d="M39.81,25.56a2.67,2.67,0,0,0-2.48-1.76h.47V20.4A18.09,18.09,0,0,0,25.57,3.19V2.81A2.78,2.78,0,0,0,22.81,0H17.2a2.79,2.79,0,0,0-2.75,2.8v.39A18.09,18.09,0,0,0,2.22,20.4v3.4h.46A2.67,2.67,0,0,0,.2,25.56a3,3,0,0,0,.48,3C1.15,29.08,5.72,34,20,34s18.85-4.92,19.32-5.47A3.13,3.13,0,0,0,39.81,25.56ZM5.56,20.4A14.69,14.69,0,0,1,14.45,6.86v13a1.67,1.67,0,1,0,3.33,0V3.4h4.45V19.83a1.67,1.67,0,1,0,3.33,0v-13a14.79,14.79,0,0,1,8.9,13.54v3.4H5.56ZM20,30.6c-9.12,0-13.73-2.14-15.66-3.4H35.67C33.74,28.46,29.12,30.6,20,30.6Z"/></svg>