<svg xmlns="http://www.w3.org/2000/svg" viewBox="0 0 40 35" fill="#fff"><path d="M18.92.39a1.69,1.69,0,0,1,2.16,0L32.22,9.7V3.83a1.67,1.67,0,1,1,3.34,0v8.65l3.85,3.22A1.62,1.62,0,0,1,39.6,18a1.67,1.67,0,0,1-2.34.19l-1.7-1.42V29.53A5.52,5.52,0,0,1,30,35H10a5.52,5.52,0,0,1-5.56-5.47V16.78L2.75,18.2A1.68,1.68,0,0,1,.4,18,1.62,1.62,0,0,1,.59,15.7ZM7.78,14V29.53A2.2,2.2,0,0,0,10,31.72h3.33V21.33a2.77,2.77,0,0,1,2.78-2.74h7.78a2.77,2.77,0,0,1,2.78,2.74V31.72H30a2.2,2.2,0,0,0,2.22-2.19V14L20,3.79Zm8.89,7.88v9.84h6.66V21.88Z"/></svg>