<svg xmlns="http://www.w3.org/2000/svg" viewBox="0 0 40 35"><path class="cls-1" d="M37.77,19.66A2.22,2.22,0,0,0,40,17.47a1.85,1.85,0,0,0-.76-1.64l-3.67-3.18V4.38a2.2,2.2,0,0,0-2.22-2.19H31.11a2.2,2.2,0,0,0-2.22,2.19v2.5L21.49.48A2.32,2.32,0,0,0,20,0a2,2,0,0,0-1.53.55L.69,15.83A2.2,2.2,0,0,0,0,17.47a2.18,2.18,0,0,0,2.22,2.19H4.44V32.27A2.75,2.75,0,0,0,7.22,35h5.56a2.76,2.76,0,0,0,2.78-2.73v-6a2.2,2.2,0,0,1,2.22-2.19h4.44a2.21,2.21,0,0,1,2.23,2.19v6A2.75,2.75,0,0,0,27.22,35h5.56a2.75,2.75,0,0,0,2.78-2.73V31.16a5,5,0,0,0,0-.56l-.05-11h2.23Z"/></svg>