<svg xmlns="http://www.w3.org/2000/svg" viewBox="0 0 4.8 13.2" fill="#e12b5b"><path d="M4.53,2.36A.27.27,0,0,0,4.8,2.1a.24.24,0,0,0-.09-.2l-.44-.38v-1A.27.27,0,0,0,4,.26H3.73a.27.27,0,0,0-.26.27v.3L2.58.06A.3.3,0,0,0,2.4,0a.24.24,0,0,0-.18.07L.08,1.9A.3.3,0,0,0,0,2.1a.27.27,0,0,0,.27.26H.53V3.87a.34.34,0,0,0,.34.33h.66a.34.34,0,0,0,.34-.33V3.15a.26.26,0,0,1,.26-.26h.54a.26.26,0,0,1,.26.26v.72a.34.34,0,0,0,.34.33h.66a.34.34,0,0,0,.34-.33V2.36Z"/><path d="M0,5.82a.27.27,0,0,1,.09-.2A3.63,3.63,0,0,1,2.4,4.8a3.63,3.63,0,0,1,2.31.82.27.27,0,0,1,.09.2v.33a.29.29,0,0,1-.3.3H4.1a.28.28,0,0,1-.27-.19l-.19-.45a.23.23,0,0,0-.14-.15,3.11,3.11,0,0,0-1.1-.18,3,3,0,0,0-1.09.18.25.25,0,0,0-.15.15L1,6.26a.3.3,0,0,1-.28.19H.3a.29.29,0,0,1-.3-.3ZM.3,8.55V8.26A.64.64,0,0,1,.38,8l1-1.66A.6.6,0,0,1,1.85,6H3a.6.6,0,0,1,.52.3L4.42,8a.61.61,0,0,1,.08.3v.29A.45.45,0,0,1,4.05,9H.75A.45.45,0,0,1,.3,8.55ZM3.08,7.43a.68.68,0,0,0-.68-.68.68.68,0,1,0,.68.68Z"/><path d="M.45,9.6a.45.45,0,0,0-.45.45.47.47,0,0,0,.18.36l2,1.53a.3.3,0,0,0,.36,0l2-1.53a.47.47,0,0,0,.18-.36.45.45,0,0,0-.45-.45ZM0,10.65V12.6a.6.6,0,0,0,.6.6H4.2a.6.6,0,0,0,.6-.6V10.65l-2,1.53a.6.6,0,0,1-.72,0Z"/></svg>