<svg xmlns="http://www.w3.org/2000/svg" viewBox="0 0 34 9.5"><defs><style>.cls-1{fill:#b1d8e5;}.cls-2{fill:#d81d45;}</style></defs><g id="Layer_2" data-name="Layer 2"><g id="Layer_1-2" data-name="Layer 1"><path class="cls-1" d="M16.49,6.53,14.05.05A.08.08,0,0,0,14,0h-.77a.08.08,0,0,0-.07.05L10.7,6.53a.17.17,0,0,0,0,.07.09.09,0,0,0,.06,0h1.15a.08.08,0,0,0,.07,0L12.4,5.4h2.39l.41,1.18a.08.08,0,0,0,.07,0h1.15a.09.09,0,0,0,.06,0A.09.09,0,0,0,16.49,6.53Zm-2.1-2.3H12.8L13.6,2Z"/><path class="cls-1" d="M22.12,6.52,20.64,3.85a2.09,2.09,0,0,0,.3-.14,1.7,1.7,0,0,0,.68-.7,2.26,2.26,0,0,0,.23-1,2.31,2.31,0,0,0-.23-1,1.67,1.67,0,0,0-.68-.69,1.9,1.9,0,0,0-1-.25h-2.7a.07.07,0,0,0-.07.07V6.56a.07.07,0,0,0,.07.07H18.3a.08.08,0,0,0,.08-.07V4h.93l1.4,2.63a.06.06,0,0,0,.06,0h1.28a.08.08,0,0,0,.07,0A.09.09,0,0,0,22.12,6.52ZM20.6,2a1,1,0,0,1-.09.43.67.67,0,0,1-.24.28.61.61,0,0,1-.36.1H18.38V1.17h1.53a.69.69,0,0,1,.36.09.6.6,0,0,1,.24.28A1,1,0,0,1,20.6,2Z"/><path class="cls-1" d="M28.24,6.52,26,2.69,28,.12A.08.08,0,0,0,28,0a.08.08,0,0,0-.07,0H26.57a.09.09,0,0,0-.05,0L24.26,3.17V.08A.09.09,0,0,0,24.18,0H23.12a.08.08,0,0,0-.07.08V6.56a.07.07,0,0,0,.07.07h1.06a.08.08,0,0,0,.08-.07V4.94l.91-1.19,1.66,2.84a.08.08,0,0,0,.07,0h1.28a.06.06,0,0,0,.06,0A.09.09,0,0,0,28.24,6.52Z"/><path class="cls-1" d="M34,6.53,31.56.05a.08.08,0,0,0-.07,0h-.77a.08.08,0,0,0-.07.05L28.21,6.53a.17.17,0,0,0,0,.07.09.09,0,0,0,.06,0h1.15a.08.08,0,0,0,.07,0l.41-1.18H32.3l.41,1.18a.08.08,0,0,0,.07,0h1.15a.09.09,0,0,0,.06,0A.17.17,0,0,0,34,6.53Zm-2.1-2.3H30.31L31.1,2Z"/><polygon class="cls-1" points="13.94 9.1 13.24 9.1 13.96 7.99 13.97 7.97 13.97 7.96 13.97 7.71 13.97 7.65 13.92 7.65 12.79 7.65 12.73 7.65 12.73 7.71 12.73 7.98 12.73 8.04 12.79 8.04 13.45 8.04 12.72 9.15 12.71 9.16 12.71 9.18 12.71 9.43 12.71 9.48 12.77 9.48 13.94 9.48 14 9.48 14 9.43 14 9.16 14 9.1 13.94 9.1"/><path class="cls-1" d="M16.91,8.43h-.7v.38h.33a.27.27,0,0,1,0,.16.22.22,0,0,1-.09.1.41.41,0,0,1-.16,0,.38.38,0,0,1-.16,0A.18.18,0,0,1,16,9a.23.23,0,0,1,0-.14V8.33a.29.29,0,0,1,0-.16.19.19,0,0,1,.1-.1.24.24,0,0,1,.15,0l.12,0,.1.07a.31.31,0,0,1,.05.1v0H17V8.19a.71.71,0,0,0-.14-.29.62.62,0,0,0-.25-.2.79.79,0,0,0-.32-.07.75.75,0,0,0-.37.09.55.55,0,0,0-.25.25.71.71,0,0,0-.09.36v.51a.68.68,0,0,0,.09.35.62.62,0,0,0,.25.23.92.92,0,0,0,.38.08.75.75,0,0,0,.37-.09.6.6,0,0,0,.26-.24A.75.75,0,0,0,17,8.8V8.43Z"/><path class="cls-1" d="M26,8a.56.56,0,0,0-.27-.23,1,1,0,0,0-.41-.08h-.65V9.48h.65a.93.93,0,0,0,.42-.08A.58.58,0,0,0,26,9.17a.69.69,0,0,0,.09-.36V8.32A.69.69,0,0,0,26,8Zm-.33.35v.51a.29.29,0,0,1-.08.21.4.4,0,0,1-.26.07h-.25V8h.25a.4.4,0,0,1,.26.08A.26.26,0,0,1,25.71,8.31Z"/><polygon class="cls-1" points="29.22 7.65 28.93 7.65 28.87 7.65 28.87 7.71 28.87 8.78 28.21 7.68 28.19 7.65 28.16 7.65 27.83 7.65 27.77 7.65 27.77 7.71 27.77 9.43 27.77 9.48 27.83 9.48 28.13 9.48 28.18 9.48 28.18 9.43 28.18 8.37 28.84 9.45 28.86 9.48 28.89 9.48 29.22 9.48 29.28 9.48 29.28 9.43 29.28 7.71 29.28 7.65 29.22 7.65"/><path class="cls-1" d="M30.69,7.65h-.36V8.88a.24.24,0,0,1-.06.18.18.18,0,0,1-.15.06.24.24,0,0,1-.12,0A.22.22,0,0,1,29.91,9l0,0,0,0-.25.16-.05,0,0,0a.71.71,0,0,0,.23.19.78.78,0,0,0,.31.06.71.71,0,0,0,.34-.07.47.47,0,0,0,.22-.22.67.67,0,0,0,.08-.33V7.65Z"/><path class="cls-1" d="M20.08,9.4l-.4-.67.05,0a.48.48,0,0,0,.21-.19.6.6,0,0,0,.07-.3.54.54,0,0,0-.07-.29.51.51,0,0,0-.21-.2.56.56,0,0,0-.3-.07h-.82V9.48H19V8.77h.21l.39.68,0,0h.49ZM19,8h.41l.08,0,0,.06a.17.17,0,0,1,0,.1.29.29,0,0,1,0,.1.1.1,0,0,1,0,.06l-.08,0H19Z"/><path class="cls-1" d="M34,9.41l-.7-1.72v0H33v0l-.69,1.72,0,.07h.45l0,0,.1-.29h.64l.11.29v0H34Zm-.68-.64h-.35l.17-.46Z"/><path class="cls-1" d="M23.2,9.41l-.69-1.72,0,0H22.2l0,0-.69,1.72,0,.07h.45v0L22,9.16h.63l.11.29v0h.45Zm-.68-.64h-.35l.18-.46Z"/><polygon class="cls-1" points="11.07 7.65 10.76 7.65 10.7 7.65 10.7 7.71 10.7 9.43 10.7 9.48 10.76 9.48 11.07 9.48 11.12 9.48 11.12 9.43 11.12 7.71 11.12 7.65 11.07 7.65"/><path class="cls-2" d="M4.16.59a1,1,0,0,0-1,1v1H1a1,1,0,0,0-1,1V7.87a1,1,0,0,0,1,1H7.29a1,1,0,0,0,1-1V1.63a1,1,0,0,0-1-1ZM1,5.53a.26.26,0,0,1,.26-.26h.52a.26.26,0,0,1,.26.26v.52a.26.26,0,0,1-.26.26H1.3A.26.26,0,0,1,1,6.05Zm3.38.26a.26.26,0,0,1-.26-.26V5a.26.26,0,0,1,.26-.26h.52A.25.25,0,0,1,5.2,5v.52a.26.26,0,0,1-.26.26Zm1.82-.26V5a.26.26,0,0,1,.26-.26H7A.26.26,0,0,1,7.29,5v.52A.26.26,0,0,1,7,5.79H6.5A.26.26,0,0,1,6.24,5.53ZM1.3,3.71h.52A.26.26,0,0,1,2.08,4v.52a.26.26,0,0,1-.26.26H1.3A.26.26,0,0,1,1,4.49V4A.26.26,0,0,1,1.3,3.71ZM4.16,1.89a.26.26,0,0,1,.26-.26h.52a.25.25,0,0,1,.26.26v.52a.26.26,0,0,1-.26.26H4.42a.26.26,0,0,1-.26-.26ZM6.5,1.63H7a.26.26,0,0,1,.26.26v.52A.26.26,0,0,1,7,2.67H6.5a.26.26,0,0,1-.26-.26V1.89A.26.26,0,0,1,6.5,1.63ZM4.16,4V3.45a.26.26,0,0,1,.26-.26h.52a.25.25,0,0,1,.26.26V4a.26.26,0,0,1-.26.26H4.42A.26.26,0,0,1,4.16,4Zm2.34.26A.26.26,0,0,1,6.24,4V3.45a.26.26,0,0,1,.26-.26H7a.26.26,0,0,1,.26.26V4A.26.26,0,0,1,7,4.23Z"/></g></g></svg>