<svg xmlns="http://www.w3.org/2000/svg" viewBox="0 0 40 40" fill="#FFF"><path d="M27.5,0a5,5,0,0,1,5,5v5a5,5,0,0,1-5,5H5a5,5,0,0,1-5-5V5A5,5,0,0,1,5,0Zm0,3.75H5A1.25,1.25,0,0,0,3.75,5v5A1.25,1.25,0,0,0,5,11.25H27.5A1.25,1.25,0,0,0,28.75,10V5A1.25,1.25,0,0,0,27.5,3.75ZM12.5,27.5A2.5,2.5,0,0,1,15,25h.62V23.75a5.63,5.63,0,0,1,5.63-5.63H33.12A3.12,3.12,0,0,0,36.25,15V11.25A1.88,1.88,0,0,0,35,9.48V5.66a5.62,5.62,0,0,1,5,5.59V15a6.88,6.88,0,0,1-6.88,6.88H21.25a1.86,1.86,0,0,0-1.87,1.87V25H20a2.5,2.5,0,0,1,2.5,2.5v10A2.5,2.5,0,0,1,20,40H15a2.5,2.5,0,0,1-2.5-2.5Z"/></svg>