<svg xmlns="http://www.w3.org/2000/svg" viewBox="0 0 40 39.99"><path d="M36.7,1.47,38.53,3.3a5,5,0,0,1,0,7.07l-4.41,4.41-8.91-8.9,4.41-4.41a5,5,0,0,1,7.08,0ZM3.51,27.58,23.44,7.64l8.92,8.92L12.42,36.49a4.47,4.47,0,0,1-1.89,1.11L2.4,39.92a1.86,1.86,0,0,1-1.85-.48A1.9,1.9,0,0,1,.07,37.6L2.4,29.46a4.22,4.22,0,0,1,1.11-1.89ZM19.51,8,8.09,19.46,1.25,12.62a3.77,3.77,0,0,1,0-5.31l6.11-6.1a3.77,3.77,0,0,1,5.31,0l1.55,1.55-.08.07-5,5A1.25,1.25,0,1,0,10.9,9.6l5-5L16,4.52ZM32,20.49,35.48,24l-.07.07-5,5a1.25,1.25,0,0,0,1.77,1.76l5-5,.07-.08,1.55,1.56a3.77,3.77,0,0,1,0,5.31l-6.11,6.1a3.77,3.77,0,0,1-5.31,0l-6.83-6.84Z"/></svg>