<svg xmlns="http://www.w3.org/2000/svg" viewBox="0 0 40 40" fill="#FFF"><path d="M37.91,26.44a5,5,0,0,1,0,7.09l-4.34,4.33a5,5,0,0,1-7.08,0l-5.1-5.1,2.66-2.66,5.1,5.1a1.38,1.38,0,0,0,1.77,0l4.33-4.33a1.4,1.4,0,0,0,0-1.77L34,27.82l-1.8,1.8a1.25,1.25,0,0,1-1.77-1.77l1.8-1.8L30.15,24l2.66-2.65ZM7.24,18.61l-5.1-5.1a5,5,0,0,1,0-7.08L6.47,2.09a5,5,0,0,1,7.08,0l5.1,5.1L16,9.85l-2.05-2L12.15,9.6a1.25,1.25,0,0,1-1.77-1.77L12.18,6,10.89,4.75a1.24,1.24,0,0,0-1.76,0L4.79,9.08a1.25,1.25,0,0,0,0,1.77L9.89,16ZM4.58,25.26,28.37,1.47a5,5,0,0,1,7.08,0l3.08,3.08a4.34,4.34,0,0,1,.64.79,5,5,0,0,1-.64,6.29L14.74,35.42c-.1.1-.2.13-.31.29a7.74,7.74,0,0,1-2.61,1.44L2.41,39.92a1.75,1.75,0,0,1-1.86-.54,1.7,1.7,0,0,1-.47-1.79l2.76-9.41a7,7,0,0,1,1.74-2.92Zm1.87,4-1.8,6.11,6.11-1.8a3.53,3.53,0,0,0,1.33-.79L30,14.89,25,10,7.24,27.91a.67.67,0,0,0-.14.15,2.91,2.91,0,0,0-.65,1.18Z"/></svg>