<svg xmlns="http://www.w3.org/2000/svg" viewBox="0 0 40 40" fill="#fff"><path d="M21.88,0A18.13,18.13,0,0,1,40,18.12a1.88,1.88,0,1,1-3.75,0A14.38,14.38,0,0,0,21.88,3.75a1.88,1.88,0,1,1,0-3.75Zm.62,15A2.5,2.5,0,1,1,20,17.5,2.5,2.5,0,0,1,22.5,15ZM20,9.38A1.88,1.88,0,0,1,21.88,7.5,10.63,10.63,0,0,1,32.5,18.12a1.88,1.88,0,1,1-3.75,0,6.88,6.88,0,0,0-6.87-6.87A1.88,1.88,0,0,1,20,9.38Zm5.7,13a3.11,3.11,0,0,1,3.65-.89l8.75,3.75a3.12,3.12,0,0,1,1.83,3.52l-1.88,8.75A3.12,3.12,0,0,1,35,40h0c-.48,0-1,0-1.42,0h0c-.78,0-1.55-.09-2.31-.17A35,35,0,0,1,0,5H0A3.11,3.11,0,0,1,2.47,2L11.22.07A3.11,3.11,0,0,1,14.74,1.9l3.75,8.75a3.12,3.12,0,0,1-.89,3.65l-3.17,2.59a24.08,24.08,0,0,0,8.68,8.68Zm10.46,6.1-7.85-3.36L26,27.94a3.75,3.75,0,0,1-4.79.86,27.62,27.62,0,0,1-10-10A3.75,3.75,0,0,1,12.05,14l2.81-2.3L11.5,3.84,3.76,5.51A31.25,31.25,0,0,0,34.49,36.25l1.67-7.75Z"/></svg>