<svg xmlns="http://www.w3.org/2000/svg" viewBox="0 0 40 40"><path d="M21.88,0A18.13,18.13,0,0,1,40,18.13a1.88,1.88,0,0,1-3.75,0A14.38,14.38,0,0,0,21.88,3.75a1.88,1.88,0,1,1,0-3.75Zm.62,15A2.5,2.5,0,1,1,20,17.5,2.5,2.5,0,0,1,22.5,15ZM20,9.38A1.88,1.88,0,0,1,21.88,7.5,10.63,10.63,0,0,1,32.5,18.13a1.88,1.88,0,0,1-3.75,0,6.88,6.88,0,0,0-6.87-6.88A1.87,1.87,0,0,1,20,9.38ZM9.18.11a3.11,3.11,0,0,1,3.7,1.81L16,9.42A3.12,3.12,0,0,1,15.1,13L11.25,16.2A26.37,26.37,0,0,0,23.8,28.75L27,24.9A3.13,3.13,0,0,1,30.57,24l7.5,3.13a3.11,3.11,0,0,1,1.81,3.7L38,37.7A3.13,3.13,0,0,1,35,40,35,35,0,0,1,0,5,3.14,3.14,0,0,1,2.3,2Z"/></svg>