<svg xmlns="http://www.w3.org/2000/svg" viewBox="0 0 35 40"><path d="M6.88,13.75H28.13a.62.62,0,0,0,.62-.62v-2.5a.63.63,0,0,0-.62-.63H27.5a8.67,8.67,0,0,0-5.37-8L20,6.25v-5A1.24,1.24,0,0,0,18.75,0h-2.5A1.25,1.25,0,0,0,15,1.25v5L12.88,2A8.68,8.68,0,0,0,7.5,10H6.88a.63.63,0,0,0-.63.63v2.43A.64.64,0,0,0,6.88,13.75Zm10.62,7.5a6.24,6.24,0,0,1-6.12-5H7.63a9.95,9.95,0,0,0,19.75,0H23.63A6.31,6.31,0,0,1,17.5,21.25Zm7.09,6.25H10.41A10.42,10.42,0,0,0,0,37.92,2.08,2.08,0,0,0,2.08,40H32.92A2.08,2.08,0,0,0,35,37.92,10.42,10.42,0,0,0,24.59,27.5ZM4,36.25a6.68,6.68,0,0,1,6.46-5H24.58a6.68,6.68,0,0,1,6.46,5Z"/></svg>