<svg xmlns="http://www.w3.org/2000/svg" viewBox="0 0 33 6"><defs><style>.cls-1{fill:#b1d8e5;}</style></defs><g id="Layer_2" data-name="Layer 2"><g id="Layer_1-2" data-name="Layer 1"><path class="cls-1" d="M3,0c-.81,0-.92,0-1.24,0A2,2,0,0,0,1,.16,1.54,1.54,0,0,0,.5.5,1.54,1.54,0,0,0,.16,1,2,2,0,0,0,0,1.76C0,2.08,0,2.19,0,3s0,.92,0,1.24A2,2,0,0,0,.16,5,1.54,1.54,0,0,0,.5,5.5,1.54,1.54,0,0,0,1,5.84,2,2,0,0,0,1.76,6C2.08,6,2.19,6,3,6s.92,0,1.24,0A2,2,0,0,0,5,5.84,1.48,1.48,0,0,0,5.84,5,2,2,0,0,0,6,4.24C6,3.92,6,3.81,6,3s0-.92,0-1.24A2,2,0,0,0,5.84,1,1.54,1.54,0,0,0,5.5.5,1.54,1.54,0,0,0,5,.16,2,2,0,0,0,4.24,0C3.92,0,3.81,0,3,0ZM3,.54c.8,0,.9,0,1.21,0a1.69,1.69,0,0,1,.56.1.89.89,0,0,1,.34.23.89.89,0,0,1,.23.34,1.69,1.69,0,0,1,.1.56c0,.31,0,.41,0,1.21s0,.9,0,1.21a1.69,1.69,0,0,1-.1.56.89.89,0,0,1-.23.34.89.89,0,0,1-.34.23,1.69,1.69,0,0,1-.56.1c-.31,0-.41,0-1.21,0s-.9,0-1.21,0a1.69,1.69,0,0,1-.56-.1.89.89,0,0,1-.34-.23.89.89,0,0,1-.23-.34,1.69,1.69,0,0,1-.1-.56c0-.31,0-.41,0-1.21s0-.9,0-1.21a1.69,1.69,0,0,1,.1-.56A.89.89,0,0,1,.89.89.89.89,0,0,1,1.23.66a1.69,1.69,0,0,1,.56-.1c.31,0,.41,0,1.21,0"/><path class="cls-1" d="M3,4A1,1,0,1,1,4,3,1,1,0,0,1,3,4ZM3,1.46A1.54,1.54,0,1,0,4.54,3,1.54,1.54,0,0,0,3,1.46M5,1.4A.36.36,0,1,1,4.6,1,.36.36,0,0,1,5,1.4"/><path class="cls-1" d="M27,3h0a3,3,0,0,0,2.46,3V4h-.64a.1.1,0,0,1-.11-.1V3.1a.11.11,0,0,1,.11-.1h.64V2.44a1.13,1.13,0,0,1,1.19-1.23h.64a.11.11,0,0,1,.1.1v.76a.11.11,0,0,1-.1.11h-.44c-.29,0-.35.11-.35.34V3h.76a.1.1,0,0,1,.1.1v.82a.1.1,0,0,1-.1.1H30.5V6A3,3,0,0,0,33,3h0a3,3,0,1,0-6,0Z"/><path class="cls-1" d="M20,.92a.08.08,0,0,0-.1,0,1.07,1.07,0,0,1-.44.16.94.94,0,0,0,.37-.68.08.08,0,0,0,0-.07.06.06,0,0,0-.08,0,2.25,2.25,0,0,1-.77.34,1.24,1.24,0,0,0-1-.66h-.1a1.44,1.44,0,0,0-1.22.88,1.86,1.86,0,0,0-.17.59A3.17,3.17,0,0,0,15.81,1,4.94,4.94,0,0,0,13.46.51h-.33a.07.07,0,0,0-.06,0,.06.06,0,0,0,0,.07,2.21,2.21,0,0,0,1.1,1,.63.63,0,0,0-.45.31.32.32,0,0,0,.1.35,1.78,1.78,0,0,0,.66.43c-.16,0-.3.08-.34.17a.17.17,0,0,0,0,.19,1.92,1.92,0,0,0,1.27.6,1.22,1.22,0,0,1-.28.4,2,2,0,0,1-1.49.51h0a3.6,3.6,0,0,1-.56,0s-.07,0-.08,0a.08.08,0,0,0,0,.09A4,4,0,0,0,15.84,6h0a3.58,3.58,0,0,0,2.84-1.51,3.48,3.48,0,0,0,.65-2.77A1.45,1.45,0,0,0,20,1,.09.09,0,0,0,20,.92Z"/></g></g></svg>