<?xml version="1.0" encoding="utf-8"?>
<!-- Generator: Adobe Illustrator 26.3.1, SVG Export Plug-In . SVG Version: 6.00 Build 0)  -->
<svg version="1.1" id="Layer_1" xmlns="http://www.w3.org/2000/svg" xmlns:xlink="http://www.w3.org/1999/xlink" x="0px" y="0px"
	 viewBox="0 0 230 42" enable-background="new 0 0 230 42" xml:space="preserve">
<g>
	<path fill="#B1D8E5" d="M21,0c-5.7,0-6.4,0-8.7,0.1c-1.7,0-3.5,0.4-5.1,1c-2.8,1.1-5,3.3-6.1,6.1c-0.6,1.6-1,3.4-1,5.1
		C0,14.6,0,15.3,0,21s0,6.4,0.1,8.7c0,1.7,0.4,3.5,1,5.1c1.1,2.8,3.3,5,6.1,6.1c1.6,0.6,3.4,1,5.1,1c2.2,0.1,3,0.1,8.7,0.1
		s6.4,0,8.7-0.1c1.7,0,3.5-0.4,5.1-1c2.8-1.1,5.1-3.3,6.1-6.1c0.6-1.6,1-3.4,1-5.1c0.1-2.2,0.1-3,0.1-8.7s0-6.4-0.1-8.7
		c0-1.7-0.4-3.5-1-5.1c-1.1-2.8-3.3-5-6.1-6.1c-1.6-0.6-3.4-1-5.1-1C27.4,0,26.7,0,21,0z M21,3.8c5.6,0,6.3,0,8.5,0.1
		c1.3,0,2.7,0.3,3.9,0.7c0.9,0.3,1.7,0.9,2.4,1.6c0.7,0.7,1.2,1.5,1.6,2.4c0.5,1.2,0.7,2.6,0.7,3.9c0.1,2.2,0.1,2.9,0.1,8.5
		s0,6.3-0.1,8.5c0,1.3-0.3,2.7-0.7,3.9c-0.7,1.8-2.2,3.3-4,4c-1.2,0.5-2.6,0.7-3.9,0.7c-2.2,0.1-2.9,0.1-8.5,0.1s-6.3,0-8.5-0.1
		c-1.3,0-2.7-0.3-3.9-0.7c-0.9-0.3-1.7-0.9-2.4-1.6c-0.7-0.7-1.2-1.5-1.6-2.4c-0.5-1.2-0.7-2.6-0.7-3.9c-0.1-2.2-0.1-2.9-0.1-8.5
		s0-6.3,0.1-8.5c0-1.3,0.3-2.7,0.7-3.9C5,7.7,5.5,6.9,6.2,6.2C6.9,5.5,7.7,5,8.6,4.6c1.2-0.5,2.6-0.7,3.9-0.7
		C14.7,3.8,15.4,3.8,21,3.8"/>
	<path fill="#B1D8E5" d="M21,28c-3.9,0-7-3.1-7-7s3.1-7,7-7s7,3.1,7,7S24.9,28,21,28z M21,10.2c-6,0-10.8,4.8-10.8,10.8
		S15,31.8,21,31.8S31.8,26.9,31.8,21C31.8,15,27,10.2,21,10.2C21,10.2,21,10.2,21,10.2 M34.7,9.8c0,1.4-1.1,2.5-2.5,2.5
		s-2.5-1.1-2.5-2.5s1.1-2.5,2.5-2.5C33.6,7.3,34.7,8.4,34.7,9.8L34.7,9.8"/>
</g>
<path fill="#B1D8E5" d="M188,21L188,21c-0.1,10.2,7.2,19,17.2,20.9V28.1h-4.5c-0.4,0-0.7-0.3-0.7-0.7v-5.7c0-0.4,0.3-0.7,0.7-0.7
	h4.5v-4c0-5.2,3.3-8.6,8.3-8.6h4.5c0.4,0,0.7,0.3,0.7,0.7c0,0,0,0,0,0v5.3c0,0.4-0.3,0.7-0.7,0.7c0,0,0,0,0,0h-3
	c-2.1,0-2.5,0.8-2.5,2.4v3.4h5.3c0.2,0,0.4,0.1,0.5,0.2c0.1,0.1,0.2,0.3,0.2,0.5v5.7c0,0.4-0.3,0.7-0.7,0.7h-5.3v13.9
	c10.1-1.8,17.5-10.6,17.5-20.8l0,0c0-11.6-9.4-21-21-21C197.4,0.1,188,9.5,188,21L188,21L188,21z"/>
<path fill="#B1D8E5" d="M143.8,6.6c-0.8-2.5-2.7-4.6-5.2-5.2C133.8,0,115,0,115,0S96.2,0,91.6,1.2c-2.5,0.7-4.7,2.9-5.4,5.4
	C85,11.2,85,21,85,21s0,9.8,1.2,14.4c0.8,2.5,2.7,4.6,5.2,5.2C96.2,42,115,42,115,42s18.8,0,23.4-1.2c2.6-0.8,4.6-2.7,5.2-5.2
	C145,30.8,145,21,145,21S145,11.2,143.8,6.6z M109,30V12l15.6,9L109,30z"/>
</svg>
