<svg xmlns="http://www.w3.org/2000/svg" viewBox="0 0 40 40" fill="#FFF"><path d="M18.81.37A2.5,2.5,0,0,1,20,2.5V8.12h7a2.51,2.51,0,0,1,2.43-1.87h6.87a3.75,3.75,0,0,1,0,7.5H29.38A2.51,2.51,0,0,1,27,11.87H20V17.5a2.5,2.5,0,0,1-3.62,2.23l-15-7.5A2.49,2.49,0,0,1,0,10,2.52,2.52,0,0,1,1.38,7.76l15-7.5a2.53,2.53,0,0,1,2.43.11ZM26.25,17.5h10A3.75,3.75,0,0,1,40,21.25v8.12c0,.11,0,.22,0,.32s0,.21,0,.31v6.25A3.75,3.75,0,0,1,36.25,40H3.75A3.75,3.75,0,0,1,0,36.25V30a3.75,3.75,0,0,1,3.75-3.75H22.5v-5A3.75,3.75,0,0,1,26.25,17.5ZM20,30v6.25H36.25V30Zm-3.75,0H3.75v6.25h12.5Zm20-8.75h-10v5h10Z"/></svg>