<svg xmlns="http://www.w3.org/2000/svg" viewBox="0 0 40 40"><path d="M18.81.37A2.5,2.5,0,0,1,20,2.5V8.12h7a2.51,2.51,0,0,1,2.43-1.87h6.87a3.75,3.75,0,0,1,0,7.5H29.38A2.51,2.51,0,0,1,27,11.87H20V17.5a2.5,2.5,0,0,1-3.62,2.23l-15-7.5a2.5,2.5,0,0,1,0-4.47l15-7.5A2.5,2.5,0,0,1,18.81.37ZM22.5,20A2.5,2.5,0,0,1,25,17.5H37.5A2.5,2.5,0,0,1,40,20v5a2.5,2.5,0,0,1-2.5,2.5H25A2.5,2.5,0,0,1,22.5,25ZM2.5,30H10a2.5,2.5,0,0,1,2.5,2.5v5A2.5,2.5,0,0,1,10,40H2.5A2.5,2.5,0,0,1,0,37.5v-5A2.5,2.5,0,0,1,2.5,30Zm15,0h20A2.5,2.5,0,0,1,40,32.5v5A2.5,2.5,0,0,1,37.5,40h-20A2.5,2.5,0,0,1,15,37.5v-5A2.5,2.5,0,0,1,17.5,30Z"/></svg>