<svg xmlns="http://www.w3.org/2000/svg" viewBox="0 0 40 34.45"><path d="M21.11,3.33A3.33,3.33,0,1,1,17.78,0,3.34,3.34,0,0,1,21.11,3.33ZM.68,13.81a1.67,1.67,0,0,1,2.18-.9l1.36.56,1.59-2.64a6.24,6.24,0,0,1,5.37-3,8.29,8.29,0,0,1,7.87,5.67l2.4,7.2L27,23l2.38-3.16a2.21,2.21,0,0,1,1.88-.89A2.23,2.23,0,0,1,33,20l6.66,11.12a2.22,2.22,0,0,1-1.9,3.36H20a2.22,2.22,0,0,1-2-3.22L19.13,29a2.21,2.21,0,0,1,2-1.23h2.23L24.9,25.7,1.58,16a1.67,1.67,0,0,1-.89-2.18Zm5.75,6.37,7.78,3.34a2.21,2.21,0,0,1,1.35,2v6.66a2.23,2.23,0,1,1-4.45,0V27L6.9,25.22,4.33,32.93A2.22,2.22,0,0,1,.11,31.52l3.34-10,.76-2.29Z"/></svg>