<svg xmlns="http://www.w3.org/2000/svg" viewBox="0 0 40 35.62"><path d="M21.58,28.94a2.23,2.23,0,0,0-2.11,1.52l-1.72,5.15H40L32.92,21.29A2.24,2.24,0,0,0,29,21.12L26.6,25.25,20.87,22l-1.5-8.67a8.38,8.38,0,0,0-8.18-6.66H7.62A3.89,3.89,0,0,0,4.7,8L.92,12.25a1.63,1.63,0,0,0-.4,1.38,1.67,1.67,0,0,0,.82,1.18L24.91,28.13l-.49.81Zm-16.79-16L7.2,10.2c.1-.18.26-.18.42-.18H11.2A5,5,0,0,1,16.09,14l1,5.93Zm26.05,11.7,3.79,7.66H26.34Zm-12-18A3.34,3.34,0,0,0,22.2,3.34,3.39,3.39,0,0,0,18.86,0a3.34,3.34,0,1,0,0,6.67Zm-13,13.06a1.63,1.63,0,0,0-1.5-.13,1.67,1.67,0,0,0-1,1.12L.05,33.52a1.68,1.68,0,0,0,1.2,2,.9.9,0,0,0,.36.06,1.66,1.66,0,0,0,1.61-1.25L6,23.77l6.19,3.87V34a1.61,1.61,0,1,0,3.22,0V26.71a1.66,1.66,0,0,0-.79-1.41Z"/></svg>