<?xml version="1.0" encoding="utf-8"?>
<!-- Generator: Adobe Illustrator 26.3.1, SVG Export Plug-In . SVG Version: 6.00 Build 0)  -->
<svg version="1.1" id="Layer_1" xmlns="http://www.w3.org/2000/svg" xmlns:xlink="http://www.w3.org/1999/xlink" x="0px" y="0px"
	 viewBox="0 0 42 42" enable-background="new 0 0 42 42" xml:space="preserve">
<path fill="#FFFFFF" d="M41.1,10.9c-0.5-1.8-1.9-3.2-3.7-3.7C34.1,6.3,21,6.3,21,6.3S7.9,6.3,4.6,7.2c-1.8,0.5-3.2,1.9-3.7,3.7
	C0,14.2,0,21,0,21s0,6.8,0.9,10.1c0.5,1.8,1.9,3.2,3.7,3.7C7.9,35.7,21,35.7,21,35.7s13.1,0,16.4-0.9c1.8-0.5,3.2-1.9,3.7-3.7
	C42,27.8,42,21,42,21S42,14.2,41.1,10.9z M16.8,27.3V14.7L27.7,21L16.8,27.3z"/>
</svg>
