<svg xmlns="http://www.w3.org/2000/svg" viewBox="0 0 120 120"><defs><style>.cls-1{fill:#254260;}</style></defs><g id="Layer_2" data-name="Layer 2"><g id="Layer_1-2" data-name="Layer 1"><path class="cls-1" d="M60,0A15,15,0,0,0,45,15V30H15A15,15,0,0,0,0,45v60a15,15,0,0,0,15,15h90a15,15,0,0,0,15-15V15A15,15,0,0,0,105,0ZM15,71.25a3.76,3.76,0,0,1,3.75-3.75h7.5A3.76,3.76,0,0,1,30,71.25v7.5a3.76,3.76,0,0,1-3.75,3.75h-7.5A3.76,3.76,0,0,1,15,78.75ZM63.75,75A3.76,3.76,0,0,1,60,71.25v-7.5A3.76,3.76,0,0,1,63.75,60h7.5A3.76,3.76,0,0,1,75,63.75v7.5A3.76,3.76,0,0,1,71.25,75ZM90,71.25v-7.5A3.76,3.76,0,0,1,93.75,60h7.5A3.76,3.76,0,0,1,105,63.75v7.5A3.76,3.76,0,0,1,101.25,75h-7.5A3.76,3.76,0,0,1,90,71.25ZM18.75,45h7.5A3.76,3.76,0,0,1,30,48.75v7.5A3.76,3.76,0,0,1,26.25,60h-7.5A3.76,3.76,0,0,1,15,56.25v-7.5A3.76,3.76,0,0,1,18.75,45ZM60,18.75A3.76,3.76,0,0,1,63.75,15h7.5A3.76,3.76,0,0,1,75,18.75v7.5A3.76,3.76,0,0,1,71.25,30h-7.5A3.76,3.76,0,0,1,60,26.25ZM93.75,15h7.5A3.76,3.76,0,0,1,105,18.75v7.5A3.76,3.76,0,0,1,101.25,30h-7.5A3.76,3.76,0,0,1,90,26.25v-7.5A3.76,3.76,0,0,1,93.75,15ZM60,48.75v-7.5a3.76,3.76,0,0,1,3.75-3.75h7.5A3.76,3.76,0,0,1,75,41.25v7.5a3.76,3.76,0,0,1-3.75,3.75h-7.5A3.76,3.76,0,0,1,60,48.75ZM93.75,52.5A3.76,3.76,0,0,1,90,48.75v-7.5a3.76,3.76,0,0,1,3.75-3.75h7.5A3.76,3.76,0,0,1,105,41.25v7.5a3.76,3.76,0,0,1-3.75,3.75Z"/></g></g></svg>