<svg xmlns="http://www.w3.org/2000/svg" viewBox="0 0 336 137">
  <path d="M83.5 94.2 48.3.7a1 1 0 0 0-1-.6H36.2a1 1 0 0 0-1 .6L0 94.2a1 1 0 0 0 0 1 1 1 0 0 0 1 .5h16.5a1 1 0 0 0 1-.7l5.9-17H59l6 17a1 1 0 0 0 1 .7h16.5a1 1 0 0 0 1-1.5ZM53.2 61.1H30.3l11.5-33ZM164.7 94l-21.4-38.5a25 25 0 0 0 4.4-2 24.6 24.6 0 0 0 9.7-10.1 31.5 31.5 0 0 0 3.5-15 31.4 31.4 0 0 0-3.5-14.8 24.7 24.7 0 0 0-9.7-10.1A28.7 28.7 0 0 0 133.3 0h-39a1 1 0 0 0-1 1v93.6a1 1 0 0 0 1 1h15.4a1 1 0 0 0 1-1V57H124l20.2 38a1 1 0 0 0 1 .5h18.4a1 1 0 0 0 1-.5 1 1 0 0 0 0-1Zm-22-65.5a15.6 15.6 0 0 1-1.3 6.3 9 9 0 0 1-8.5 5.4h-22.2V16.8h22.2a9.5 9.5 0 0 1 5.2 1.4 9.3 9.3 0 0 1 3.4 4 14.7 14.7 0 0 1 1.3 6.3ZM253 94l-32.5-55.2 28.4-37a1 1 0 0 0 .1-1.2 1 1 0 0 0-1-.5h-19a1 1 0 0 0-1 .4l-32.5 45.3V1a1 1 0 0 0-1-1H179a1 1 0 0 0-1 1v93.5a1 1 0 0 0 1 1h15.4a1 1 0 0 0 1-1V71.3L208.7 54l24 41a1 1 0 0 0 .9.5H252a1 1 0 0 0 1-.5 1 1 0 0 0 0-1.1Z" fill="#d71d45"/>
  <path d="M336 94.2 300.7.7a1 1 0 0 0-1-.6h-11.2a1 1 0 0 0-1 .6l-35 93.5a1 1 0 0 0 1 1.4H270a1 1 0 0 0 1-.7l5.9-17h34.6l5.9 17a1 1 0 0 0 1 .7H335a1 1 0 0 0 1-1.4Zm-30.3-33.1h-22.9l11.4-33Z" fill="#d71d45"/>
  <path d="M46.8 131.2H36.6l10.5-16 .1-.2v-4.6H29.4v5.5h10.3l-10.6 16-.1.2v4.6h18.6v-5.5h-.8zm42.7-9.7h-10v5.6h4.7a4.8 4.8 0 0 1-.5 2.3 3.3 3.3 0 0 1-1.4 1.4 4.7 4.7 0 0 1-2.3.5 5.3 5.3 0 0 1-2.3-.5 3.4 3.4 0 0 1-1.5-1.3 3.7 3.7 0 0 1-.5-2v-7.3a4.8 4.8 0 0 1 .5-2.3 3.6 3.6 0 0 1 1.5-1.5 4.4 4.4 0 0 1 2.2-.6 4.7 4.7 0 0 1 1.7.4 4 4 0 0 1 1.4.9 3.4 3.4 0 0 1 .8 1.4l.2.6h6.3l-.2-1a10.2 10.2 0 0 0-2-4.2 9.6 9.6 0 0 0-3.6-2.8 11 11 0 0 0-4.6-1 11.2 11.2 0 0 0-5.4 1.2 8.9 8.9 0 0 0-3.7 3.6 10.5 10.5 0 0 0-1.2 5.2v7.3a9.4 9.4 0 0 0 1.3 5 8.8 8.8 0 0 0 3.7 3.4A12 12 0 0 0 80 137a11.3 11.3 0 0 0 5.4-1.3 8.9 8.9 0 0 0 3.6-3.5 10.6 10.6 0 0 0 1.3-5.3v-5.4Zm131.7-6.7a8.4 8.4 0 0 0-3.8-3.3 14.4 14.4 0 0 0-6-1.1H202v26.3h9.4a14.3 14.3 0 0 0 6-1.1 8.7 8.7 0 0 0 3.9-3.4 9.9 9.9 0 0 0 1.3-5.1v-7a9.9 9.9 0 0 0-1.4-5.3Zm-4.7 5.1v7.3a3.6 3.6 0 0 1-1.3 3 5.6 5.6 0 0 1-3.6 1H208V116h3.6a5.6 5.6 0 0 1 3.7 1 3.6 3.6 0 0 1 1.1 3Zm50.6-9.5H262v16.2l-9.5-15.8-.2-.4h-6.1v26.3h5.9v-16l9.5 15.6.2.4h6.1v-26.3h-.8zm21.2 0H283V128a3.7 3.7 0 0 1-.7 2.6 2.8 2.8 0 0 1-2.3.9 4.2 4.2 0 0 1-1.7-.4 3.2 3.2 0 0 1-1.2-1l-.5-.6-.6.4-3.6 2.4-.7.5.5.6a8 8 0 0 0 3.3 2.7 10.6 10.6 0 0 0 4.4.9 10.9 10.9 0 0 0 5-1 7.4 7.4 0 0 0 3.2-3.1 10 10 0 0 0 1-4.8v-17.7Zm-153 25.1-5.7-9.6a6.6 6.6 0 0 0 .7-.4 7.3 7.3 0 0 0 3-2.9 9 9 0 0 0 0-8.4 7.4 7.4 0 0 0-3-2.9 9 9 0 0 0-4.4-1H114v26.4h6v-10.2h3l5.6 9.8.3.4h7.1ZM120 115.8h5.8a2.3 2.3 0 0 1 1.2.4 2 2 0 0 1 .8.8 3 3 0 0 1 .3 1.4 3.2 3.2 0 0 1-.3 1.4 2 2 0 0 1-.8.9 2.3 2.3 0 0 1-1.2.3H120Zm215.6 19.8-10-24.7-.3-.5h-4.2l-.2.5-10 24.7-.5 1.1h6.5l.2-.5 1.5-4.2h9.2l1.6 4.2.2.5h6.4Zm-9.9-9h-5l2.5-6.8Zm-145.4 9-10-24.7-.2-.5h-4.3l-.2.5-10 24.7-.4 1.1h6.4l.2-.5 1.6-4.2h9.1l1.6 4.2.2.5h6.5Zm-9.9-9h-5l2.6-6.8ZM5.3 110.4H0v26.4h6.1v-26.4h-.8z" fill="#454545"/>
</svg>