<?xml version="1.0" encoding="utf-8"?>
<svg version="1.1" xmlns="http://www.w3.org/2000/svg" xmlns:xlink="http://www.w3.org/1999/xlink" viewBox="0 0 800 600" xml:space="preserve">
<path style="fill:#D6D6D6;" d="M0,0h800v600H0V0z"/>
<path style="fill:#606060;" d="M0,349.5h800v48.1H0V349.5z"/>
<path style="fill:#FFFFFF;" d="M229.2,384.5l14.5-22.2v-4.6h-20.8v4.9H237l-14.6,22.2v4.6h21.8v-4.9H229.2z M287.3,372v5h6v1
	c0,1.4-0.3,2.5-0.8,3.5c-0.5,1-1.3,1.8-2.3,2.3c-1,0.5-2.1,0.8-3.4,0.8c-1.2,0-2.4-0.2-3.4-0.7c-1-0.5-1.7-1.2-2.3-2.1
	c-0.5-1-0.8-2.1-0.8-3.2v-9.3c0-1.4,0.3-2.5,0.8-3.4c0.5-1,1.2-1.9,2.2-2.4c1-0.5,2.1-0.8,3.4-0.8c1.7,0,3.4,0.7,4.7,1.9
	c0.6,0.6,1,1.4,1.3,2.3h6c-0.7-3.6-3.2-6.7-6.5-8.2c-1.7-0.8-3.6-1.2-5.5-1.2c-2.3-0.1-4.5,0.4-6.5,1.4c-1.8,1-3.3,2.4-4.3,4.2
	c-1,1.9-1.6,4.1-1.5,6.2v9.4c-0.2,4.2,2.1,8,5.9,9.8c1.9,0.9,4,1.4,6.5,1.4c2.2,0.1,4.4-0.5,6.4-1.4c1.9-1,3.3-2.4,4.3-4.2
	c1-1.9,1.6-4.1,1.5-6.3V372L287.3,372L287.3,372z M467.2,362.9c-1.1-1.7-2.7-3.1-4.5-3.9c-1.9-0.9-4.3-1.4-7.1-1.4h-11.1v31.8h11.1
	c2.5,0.1,4.9-0.4,7.2-1.4c2.1-0.9,3.4-2.2,4.5-3.9c1-1.9,1.6-3.9,1.5-6V369C468.8,366.6,468.3,364.6,467.2,362.9L467.2,362.9z
	 M463,378.2c0,2-0.7,3.5-1.9,4.6c-1.6,1.2-3.5,1.8-5.4,1.6h-5.5v-21.8h5.6c2.3,0,4.1,0.5,5.4,1.6c1.3,1.2,2,2.9,1.9,4.6L463,378.2
	L463,378.2z M521.5,357.7v23.5l-14.2-23.5h-6.1v31.8h5.4v-23.2l14.2,23.2h6.1v-31.8H521.5z M548.5,357.7v21.7c0,1.7-0.4,3-1.2,4
	c-0.9,1-2.1,1.4-3.6,1.4c-1,0-1.9-0.1-2.7-0.5c-0.8-0.3-1.4-0.9-2-1.6l-4.6,3.1c1,1.4,2.2,2.3,3.8,3s3.4,1.1,5.4,1.1
	c2.3,0,4.2-0.4,5.8-1.2c1.6-0.8,2.7-2,3.6-3.5c0.9-1.8,1.4-3.7,1.3-5.7v-21.6L548.5,357.7L548.5,357.7z M350.2,389.4h6.7l-8-13.5
	l2-0.8c1.4-0.8,2.6-1.9,3.4-3.3c0.8-1.4,1.2-3.1,1.2-4.9s-0.4-3.4-1.2-4.9c-0.8-1.4-1.9-2.5-3.4-3.3c-1.6-0.8-3.3-1.2-5-1.2h-14.3
	v31.8h5.6v-13.1h5.5L350.2,389.4L350.2,389.4z M337.2,362.6h8.5c0.8,0,1.5,0.2,2.1,0.5c0.7,0.3,1.1,0.9,1.4,1.5
	c0.3,0.6,0.5,1.4,0.5,2.3c0,0.9-0.2,1.6-0.5,2.3c-0.3,0.7-0.8,1.2-1.4,1.6c-0.6,0.3-1.4,0.5-2.1,0.5h-8.5V362.6L337.2,362.6z
	 M607.9,389.4h6L601,357.7h-4.1l-12.8,31.6h6l2.3-6h13.1L607.9,389.4L607.9,389.4L607.9,389.4z M594.3,378.4l4.7-12.6l4.7,12.6
	H594.3L594.3,378.4z M408.6,389.4h6l-12.9-31.7h-4.1l-12.8,31.6h6l2.3-6h13.2L408.6,389.4L408.6,389.4z M395,378.4l4.7-12.6
	l4.7,12.6H395z M185.2,357.7h5.7v31.8h-5.7V357.7z"/>
<g>
	<path style="opacity:0.5;fill:#3F3F3F;enable-background:new    ;" d="M270.5,345.4h21.8L246,222.3h-14.7L185,345.4h21.8l8.1-23.4
		h47.4L270.5,345.4z M221.7,302.7l17-48.9l17,48.9L221.7,302.7L221.7,302.7z M375,345.4h24.3l-28.9-52.3c8.4-2.3,15.4-8,19.4-15.7
		c3-5.5,4.4-11.9,4.4-19.1c0.1-6.6-1.4-13.1-4.4-19c-2.7-5.4-7-9.8-12.2-12.7c-5.6-3.1-11.9-4.6-18.3-4.5h-51.4v123.2h20.3v-50.9
		h19.9L375,345.4L375,345.4z M328.1,241.6h30.7c5.4-0.1,10.4,3,12.6,7.9c1.2,2.7,1.9,5.8,1.8,8.8c0,3.4-0.7,6.4-1.9,8.9
		s-2.9,4.5-5.1,5.8c-2.3,1.4-4.9,2.1-7.5,2.1h-30.6L328.1,241.6L328.1,241.6z M491.4,345.4h24.3l-43.2-73.6l38.1-49.6h-25.3
		l-45.4,63.2v-63.2h-20.3v123.2h20.3v-31.2l18.8-24.6L491.4,345.4z M603.1,345.4h21.8l-46.3-123.1H564l-46.3,123.2h21.7l8.2-23.4
		H595L603.1,345.4L603.1,345.4z M554.3,302.7l17-48.9l17,48.9L554.3,302.7L554.3,302.7z"/>
	<path style="fill:#FFFFFF;" d="M263.7,338.6h21.8l-46.3-123.1h-14.7l-46.3,123.1h21.8l8.1-23.4h47.4L263.7,338.6z M214.9,295.8
		l17-48.9l17,48.9L214.9,295.8L214.9,295.8z M368.2,338.6h24.3l-28.9-52.3c8.4-2.3,15.4-8,19.4-15.7c3-5.5,4.4-11.9,4.4-19.1
		c0.1-6.6-1.4-13.1-4.4-19c-2.7-5.4-7-9.8-12.2-12.7c-5.6-3.1-11.9-4.6-18.3-4.5H301v123.2h20.3v-50.9h19.9L368.2,338.6L368.2,338.6
		z M321.2,234.8h30.7c5.4-0.1,10.4,3,12.6,7.9c1.2,2.5,1.8,5.5,1.8,8.8c0,3.4-0.7,6.4-1.9,8.9c-1.2,2.5-2.9,4.5-5.1,5.8
		c-2.3,1.4-4.9,2.1-7.5,2.1h-30.6L321.2,234.8L321.2,234.8z M484.5,338.6h24.3l-43.2-73.6l38.1-49.6h-25.3L433,278.6v-63.2h-20.3
		v123.2H433v-31.2l18.8-24.6L484.5,338.6z M596.3,338.6h21.8l-46.3-123.1h-14.7l-46.3,123.2h21.7l8.2-23.4h47.4L596.3,338.6
		L596.3,338.6z M547.5,295.8l17-48.9l17,48.9L547.5,295.8L547.5,295.8z"/>
</g>
</svg>
